<svg xmlns="http://www.w3.org/2000/svg" xmlns:xlink="http://www.w3.org/1999/xlink" version="1.1" x="0px" y="0px" viewBox="0 0 100 125" enable-background="new 0 0 100 100" xml:space="preserve">
    <g>
        <path fill="#56373c" d="M50.251,52.417c-4.159,0-7.602,3.129-8.096,7.157h16.193C57.853,55.546,54.41,52.417,50.251,52.417z" />
        <path fill="#56373c" d="M50.256,30.945c-10.798,0-19.583,8.783-19.583,19.578c0,10.794,8.785,19.576,19.583,19.576   c10.792,0,19.571-8.781,19.571-19.576C69.827,39.728,61.048,30.945,50.256,30.945z M50.251,36.453c3.328,0,6.036,2.708,6.036,6.037   c0,3.328-2.708,6.036-6.036,6.036c-3.329,0-6.037-2.708-6.037-6.036C44.214,39.161,46.922,36.453,50.251,36.453z M59.408,61.574   H41.094c-0.552,0-1-0.447-1-1c0-5.601,4.557-10.157,10.157-10.157s10.157,4.557,10.157,10.157   C60.408,61.127,59.961,61.574,59.408,61.574z" />
        <path fill="#56373c" d="M50.251,46.525c2.226,0,4.036-1.811,4.036-4.036s-1.811-4.037-4.036-4.037s-4.037,1.811-4.037,4.037   S48.025,46.525,50.251,46.525z" />
        <path fill="#56373c" d="M82.725,44.932c-0.326-1.954-0.85-3.912-1.555-5.82c-0.159-0.43-0.006-0.914,0.373-1.172l5.255-3.59l-4.271-7.396   l-5.748,2.757c-0.414,0.197-0.909,0.09-1.201-0.262c-1.278-1.537-2.71-2.97-4.254-4.259c-0.352-0.293-0.459-0.788-0.261-1.2   l2.757-5.743l-7.402-4.274l-3.589,5.253c-0.26,0.379-0.74,0.535-1.174,0.374c-1.845-0.684-3.803-1.207-5.819-1.556   c-0.451-0.078-0.792-0.452-0.827-0.909l-0.489-6.353h-8.538l-0.489,6.353c-0.035,0.457-0.376,0.831-0.827,0.909   c-2.021,0.349-3.979,0.872-5.818,1.556c-0.43,0.159-0.915,0.006-1.174-0.373l-3.595-5.254l-7.397,4.274l2.756,5.744   c0.198,0.413,0.091,0.907-0.261,1.2c-1.542,1.287-2.975,2.721-4.26,4.26c-0.293,0.352-0.789,0.459-1.2,0.261l-5.744-2.756   L13.7,34.35l5.253,3.59c0.378,0.258,0.533,0.741,0.375,1.17c-0.69,1.878-1.214,3.838-1.557,5.828   c-0.078,0.452-0.453,0.793-0.91,0.827l-6.352,0.479v8.547l6.352,0.483c0.457,0.035,0.832,0.376,0.91,0.827   c0.344,1.995,0.868,3.954,1.557,5.822c0.158,0.43,0.004,0.912-0.374,1.171L13.7,66.688l4.274,7.397l5.744-2.752   c0.413-0.194,0.906-0.09,1.199,0.26c1.307,1.561,2.74,2.992,4.26,4.256c0.353,0.293,0.461,0.788,0.263,1.201l-2.757,5.749   l7.396,4.273l3.595-5.259c0.259-0.378,0.742-0.532,1.171-0.374c1.89,0.696,3.848,1.222,5.821,1.563   c0.451,0.078,0.792,0.452,0.827,0.908l0.489,6.348h8.538l0.489-6.348c0.035-0.456,0.376-0.83,0.826-0.908   c1.993-0.345,3.951-0.87,5.821-1.562c0.429-0.158,0.914-0.005,1.173,0.374l3.589,5.258l7.402-4.273l-2.757-5.749   c-0.198-0.413-0.091-0.908,0.262-1.201c1.522-1.266,2.953-2.697,4.254-4.254c0.293-0.353,0.789-0.457,1.199-0.262l5.749,2.752   l4.271-7.396l-5.255-3.594c-0.379-0.259-0.533-0.742-0.373-1.173c0.704-1.899,1.228-3.855,1.555-5.815   c0.076-0.453,0.451-0.797,0.91-0.832l6.353-0.483v-8.547l-6.352-0.479C83.177,45.73,82.801,45.386,82.725,44.932z M50.256,72.099   c-11.901,0-21.583-9.679-21.583-21.576c0-11.898,9.682-21.578,21.583-21.578c11.894,0,21.571,9.68,21.571,21.578   C71.827,62.42,62.15,72.099,50.256,72.099z" />
    </g><text x="0" y="115" fill="#000000" font-size="5px" font-weight="bold" font-family="'Helvetica Neue', Helvetica, Arial-Unicode, Arial, Sans-serif"></text><text x="0" y="120" fill="#56373c" font-size="5px" font-weight="bold" font-family="'Helvetica Neue', Helvetica, Arial-Unicode, Arial, Sans-serif"></text>
</svg>
