<svg xmlns:dc="http://purl.org/dc/elements/1.1/" xmlns:cc="http://creativecommons.org/ns#" xmlns:rdf="http://www.w3.org/1999/02/22-rdf-syntax-ns#" xmlns:svg="http://www.w3.org/2000/svg" xmlns="http://www.w3.org/2000/svg" xmlns:sodipodi="http://sodipodi.sourceforge.net/DTD/sodipodi-0.dtd" xmlns:inkscape="http://www.inkscape.org/namespaces/inkscape" version="1.1" x="0px" y="0px" viewBox="0 0 100 125">
    <g transform="translate(0,-952.36218)">
        <path style="text-indent:0;text-transform:none;direction:ltr;block-progression:tb;baseline-shift:baseline;color:#000000;enable-background:accumulate;" d="m 61.335308,962.19792 c -1.813004,1.52783 -3.611374,3.1517 -5.402126,4.73148 -1.157882,1.03996 -1.287638,2.93163 -0.233185,4.11102 0.251965,0.28268 0.518421,0.60785 0.777295,0.89199 L 42.79708,984.07139 20.994226,982.09351 c -1.740614,-0.0674 -2.392547,2.06136 -1.554555,3.06383 l 19.820763,22.26126 -32.8014197,32.9266 c -1.3843701,1.4626 0.6308504,3.7422 2.4873305,2.7924 l 36.5323812,-28.6993 19.743023,22.1838 c 1.145303,1.0884 3.266964,0.2705 3.26459,-1.2411 l 0.194315,-21.9511 13.835657,-12.2553 1.088221,1.2023 c 1.080921,1.2632 2.91561,1.3085 4.11959,0.2327 l 5.324421,-4.7703 c 1.15767,-1.03968 1.287,-2.93156 0.233185,-4.11098 L 65.454934,962.43061 c -1.159937,-1.49613 -3.178417,-1.27538 -4.119626,-0.23269 z m 1.86548,3.29651 26.77748,30.09547 -4.119626,3.68437 -26.855184,-30.09544 z m -4.352775,9.30792 21.064428,23.69625 -14.302062,12.7207 c -0.396496,0.3342 -0.642579,0.8398 -0.660685,1.3574 l -0.155445,17.9565 -39.447212,-44.32874 17.916413,1.66766 c 0.503575,0.0426 1.021854,-0.12979 1.39911,-0.46538 z m -17.100283,35.40865 1.243665,1.435 -12.281102,9.6569 z" fill="#391e22" fill-opacity="1" fill-rule="evenodd" stroke="none" marker="none" visibility="visible" display="inline" overflow="visible" />
    </g>
</svg>
