<svg xmlns="http://www.w3.org/2000/svg" viewBox="0 0 32 40" x="0px" y="0px">
    <title>wedding and party for NOUNT</title>
    <g data-name="Layer 4">
        <path fill="#391e22" d="M27,19.60724V4H23V3.5A1.50164,1.50164,0,0,0,21.5,2h-1A1.50164,1.50164,0,0,0,19,3.5v.55811H10V3.5A1.50164,1.50164,0,0,0,8.5,2h-1A1.50164,1.50164,0,0,0,6,3.5V4H2V29H21.3479A5.49473,5.49473,0,1,0,27,19.60724ZM20,3.5a.50065.50065,0,0,1,.5-.5h1a.50065.50065,0,0,1,.5.5v2a.50065.50065,0,0,1-.5.5h-1a.50065.50065,0,0,1-.5-.5ZM7,3.5A.50065.50065,0,0,1,7.5,3h1a.50065.50065,0,0,1,.5.5v2a.50065.50065,0,0,1-.5.5h-1A.50065.50065,0,0,1,7,5.5ZM6,5v.5A1.50164,1.50164,0,0,0,7.5,7h1A1.50164,1.50164,0,0,0,10,5.5V5.05811h9V5.5A1.50164,1.50164,0,0,0,20.5,7h1A1.50164,1.50164,0,0,0,23,5.5V5h3V8H3V5ZM3,9H26V19.21326a5.45124,5.45124,0,0,0-1-.18793V10H4V27H19.5a.47728.47728,0,0,0,.09778-.01971A5.51668,5.51668,0,0,0,20.2608,28H3ZM21.00421,20.25714,21.00354,19H24v.02533A5.47443,5.47443,0,0,0,21.00421,20.25714ZM5,26V23H8v3Zm7.00085-15,.00531,3H9V11Zm8.004,10.34137A5.49943,5.49943,0,0,0,19.60724,22H17.02472l-.007-3h2.98578ZM12.01324,18H9V15h3.00793Zm.99475-3h3.00049l.007,3H13.01331ZM8,18H5V15H8ZM5,19H8v3H5Zm4,0h3.015l.00531,3H9Zm4.01508,0h3.00269l.007,3H13.02039Zm4.00037-1-.007-3H20.0014l.00159,3Zm3.986-3H24v3H21.003ZM24,14H21.00092l-.00165-3H24Zm-4.00073-3,.00165,3H17.00616l-.007-3Zm-4.00006,0,.007,3H13.00623l-.00531-3ZM8,14H5V11H8Zm1,9h3.02209l.00531,3H9Zm4.02747,3-.00531-3H16.027l.007,3ZM17.034,26l-.007-3h2.18622a5.382,5.382,0,0,0,0,3ZM24.5,29A4.5,4.5,0,1,1,29,24.5,4.50492,4.50492,0,0,1,24.5,29Z" />
        <path fill="#391e22" d="M27.93457,22.894A1.80913,1.80913,0,0,0,26.25684,21.5a1.77959,1.77959,0,0,0-1.49414.95654.3285.3285,0,0,1-.52734-.001A1.77539,1.77539,0,0,0,22.74219,21.5a1.80894,1.80894,0,0,0-1.67676,1.394c-.1416.55029-.333,2.50293,3.18262,4.53857a.50146.50146,0,0,0,.251.06738.49528.49528,0,0,0,.25-.06738C28.26758,25.397,28.07617,23.44434,27.93457,22.894ZM24.499,26.41846c-2.10449-1.28857-2.65039-2.55908-2.46484-3.27344a.81138.81138,0,0,1,.708-.645.85322.85322,0,0,1,.6416.48047,1.36507,1.36507,0,0,0,2.23047,0A.85588.85588,0,0,1,26.25684,22.5a.81142.81142,0,0,1,.709.645C27.15137,23.85938,26.60449,25.12988,24.499,26.41846Z" />
    </g>
</svg>
