<svg xmlns:dc="http://purl.org/dc/elements/1.1/" xmlns:cc="http://creativecommons.org/ns#" xmlns:rdf="http://www.w3.org/1999/02/22-rdf-syntax-ns#" xmlns:svg="http://www.w3.org/2000/svg" xmlns="http://www.w3.org/2000/svg" xmlns:sodipodi="http://sodipodi.sourceforge.net/DTD/sodipodi-0.dtd" xmlns:inkscape="http://www.inkscape.org/namespaces/inkscape" version="1.1" x="0px" y="0px" viewBox="0 0 100 125">
    <g transform="translate(0,-952.36218)">
        <path style="text-indent:0;text-transform:none;direction:ltr;block-progression:tb;baseline-shift:baseline;color:#000000;enable-background:accumulate;" d="m 49.994491,969.36242 c -0.61421,0.011 -1.23798,0.22983 -1.84375,0.625 l -38,30 c -0.9761596,0.96928 -1.6623896,3.05628 -0.6562496,4.34378 1.0061296,1.2875 3.1221896,1.4602 4.3437496,0.375 l 36.15625,-28.53128 36.15625,28.53128 c 1.22156,1.0852 3.38223,0.9461 4.34375,-0.375 0.84367,-1.1593 0.63613,-3.3775 -0.65625,-4.34378 l -38,-30 c -0.62489,-0.43912 -1.22954,-0.63599 -1.84375,-0.625 z m -24,29.28125 -5.999999,4.75003 0,28.9687 a 3.0003,3.0003 0 0 0 3,3 l 18.999999,0 a 3.0003,3.0003 0 0 0 3,-3 l 0,-12 c 0,-2.8219 2.17811,-5 5,-5 2.82189,0 5,2.1781 5,5 l 0,12 a 3.0003,3.0003 0 0 0 3,3 l 19,0 a 3.0003,3.0003 0 0 0 3,-3 l 0,-28.9687 -6,-4.75003 0,30.71873 -13,0 0,-9 c 0,-6.0421 -4.95789,-11 -11,-11 -6.04211,0 -11,4.9579 -11,11 l 0,9 -13,0 0,-30.71873 z" fill="#391e22" fill-opacity="1" stroke="none" marker="none" visibility="visible" display="inline" overflow="visible" />
    </g>
</svg>
