<svg xmlns:dc="http://purl.org/dc/elements/1.1/" xmlns:cc="http://creativecommons.org/ns#" xmlns:rdf="http://www.w3.org/1999/02/22-rdf-syntax-ns#" xmlns:svg="http://www.w3.org/2000/svg" xmlns="http://www.w3.org/2000/svg" xmlns:sodipodi="http://sodipodi.sourceforge.net/DTD/sodipodi-0.dtd" xmlns:inkscape="http://www.inkscape.org/namespaces/inkscape" viewBox="0 0 8.4666667 10.583333625" version="1.1" x="0px" y="0px">
    <svg:g>
        <svg:path style="color:#391e22;font-style:normal;font-variant:normal;font-weight:normal;font-stretch:normal;font-size:medium;line-height:normal;font-family:sans-serif;font-variant-ligatures:normal;font-variant-position:normal;font-variant-caps:normal;font-variant-numeric:normal;font-variant-alternates:normal;font-feature-settings:normal;text-indent:0;text-align:start;text-decoration:none;text-decoration-line:none;text-decoration-style:solid;text-decoration-color:#391e22;letter-spacing:normal;word-spacing:normal;text-transform:none;writing-mode:lr-tb;direction:ltr;text-orientation:mixed;dominant-baseline:auto;baseline-shift:baseline;text-anchor:start;white-space:normal;shape-padding:0;clip-rule:nonzero;display:inline;overflow:visible;visibility:visible;opacity:1;isolation:auto;mix-blend-mode:normal;color-interpolation:sRGB;color-interpolation-filters:linearRGB;solid-color:#391e22;solid-opacity:1;vector-effect:none;fill=#391e22;fill-opacity:1;fill-rule:nonzero;stroke:none;stroke-width:0.5291667;stroke-linecap:round;stroke-linejoin:round;stroke-miterlimit:4;stroke-dasharray:none;stroke-dashoffset:0;stroke-opacity:1;color-rendering:auto;image-rendering:auto;shape-rendering:auto;text-rendering:auto;enable-background:accumulate" fill="#391e22" d="m 1.7849057,1.3815689 c -0.6278907,-3e-6 -1.14256611,0.514675 -1.14256611,1.142566 -2.65e-6,0.62789 0.51467541,1.142566 1.14256611,1.142566 0.6278879,-3e-6 1.1425634,-0.514678 1.1425634,-1.142566 0,-0.627891 -0.5146755,-1.142566 -1.1425634,-1.142566 z m 4.8947916,0 c -0.6278907,0 -1.1425661,0.514675 -1.1425661,1.142566 0,0.627888 0.5146754,1.142563 1.1425661,1.142566 0.627888,0 1.1425634,-0.514678 1.1425634,-1.142566 0,-0.627891 -0.5146754,-1.142569 -1.1425634,-1.142566 z m -2.4473958,0.478522 c -0.6278907,0 -1.1425661,0.514676 -1.1425661,1.142567 0,0.62789 0.5146754,1.142568 1.1425661,1.142566 0.627888,0 1.1425634,-0.514676 1.1425634,-1.142566 2.6e-6,-0.627888 -0.5146754,-1.142567 -1.1425634,-1.142567 z m -2.4473958,0.05116 c 0.3419051,3e-6 0.6154658,0.270976 0.6154658,0.612884 0,0.341905 -0.2735607,0.613399 -0.6154658,0.613399 -0.3419079,0 -0.6128835,-0.271494 -0.6128835,-0.613399 0,-0.341908 0.2709756,-0.612884 0.6128835,-0.612884 z m 4.8947916,0 c 0.3419051,0 0.6133994,0.270976 0.6133967,0.612884 0,0.341905 -0.2714916,0.613399 -0.6133967,0.613399 -0.3419078,0 -0.6133994,-0.271494 -0.6133994,-0.613399 0,-0.341908 0.2714916,-0.612881 0.6133994,-0.612884 z m -2.4473958,0.478526 c 0.3419051,0 0.6133967,0.270975 0.6133967,0.612881 0,0.341907 -0.2714916,0.613399 -0.6133967,0.613399 -0.3419078,3e-6 -0.6133995,-0.271492 -0.6133995,-0.613399 0,-0.341908 0.2714917,-0.612881 0.6133995,-0.612881 z M 1.7849057,3.8641039 C 0.79960527,3.8641039 5.3699267e-8,4.6658839 5.3699267e-8,5.6510759 v 0.69143 A 0.26460984,0.26460984 0 0 0 0.26355151,6.6081239 H 2.4473959 v 0.212905 a 0.26460984,0.26460984 0 0 0 0.2635514,0.264067 h 3.0427083 a 0.26460984,0.26460984 0 0 0 0.2656152,-0.264067 v -0.212905 h 2.1817806 a 0.26460984,0.26460984 0 0 0 0.2656152,-0.265618 v -0.69143 c 0,-0.985192 -0.8016716,-1.786972 -1.7869693,-1.786972 -0.6086819,0 -1.1443547,0.307335 -1.4665775,0.773597 -0.2818553,-0.185921 -0.6187017,-0.295072 -0.9808183,-0.295072 -0.3617066,0 -0.6979418,0.109022 -0.9792706,0.294556 C 2.9303186,4.1712139 2.39336,3.8641039 1.7849057,3.8641039 Z m 0,0.529167 c 0.4589145,0 0.8317203,0.264895 1.0485146,0.629419 -0.2312353,0.292315 -0.3722185,0.657977 -0.3834395,1.056267 H 0.52916671 v -0.427881 c 0,-0.701276 0.55457199,-1.257805 1.25573899,-1.257805 z m 4.8947916,0 c 0.7011643,0 1.2578027,0.556529 1.2578027,1.257805 v 0.427881 H 6.0166885 c -0.01125,-0.398293 -0.1523312,-0.76395 -0.3839581,-1.056267 0.2165668,-0.3645 0.5880762,-0.629419 1.0469669,-0.629419 z m -2.4473958,0.478525 c 0.3389524,0 0.6422786,0.132638 0.8671295,0.346231 a 0.26460984,0.26460984 0 0 0 0.00568,0.0057 c 0.1776572,0.17118 0.3042391,0.392338 0.3570843,0.642856 1.932e-4,9.2e-4 8.441e-4,0.0017 0.00103,0.0026 0.00123,0.0059 0.00143,0.01215 0.00258,0.01809 0.014991,0.07846 0.024286,0.159131 0.024286,0.242361 v 0.425815 H 2.9744961 v -0.182936 a 0.26460984,0.26460984 0 0 0 0.00207,-0.02997 v -0.212907 c 0,-0.01454 0.00159,-0.02849 0.00207,-0.04289 0.00193,-0.05769 0.00781,-0.114157 0.017055,-0.169497 0.045746,-0.271225 0.1759055,-0.510958 0.3653525,-0.6935 a 0.26460984,0.26460984 0 0 0 0.00982,-0.01033 c 0.2243296,-0.210601 0.5251661,-0.34158 0.8614463,-0.34158 z" />
    </svg:g>
</svg>
